<svg xmlns="http://www.w3.org/2000/svg" viewBox="155 355 515 540">
  <g transform="translate(0,1248) scale(0.1,-0.1)" fill="#5b8def">
    <path d="M5539 7628 c-1459 -1473 -2208 -2240 -2305 -2358 l-29 -35 44 35 c317 250 584 469 1370 1125 311 258 585 485 610 503 52 37 91 41 139 12 65 -40 62 6 62 -1036 l0 -946 -903 4 -903 3 -223 -165 c-122 -91 -283 -211 -358 -268 l-136 -102 1527 0 1526 0 0 1293 c0 710 5 1355 10 1433 19 305 65 544 145 759 40 108 184 407 264 548 27 48 48 87 47 87 -2 0 -401 -402 -887 -892z"/>
    <path d="M2370 6642 c0 -1578 1 -1562 -60 -1797 -64 -249 -210 -534 -398 -779 -25 -32 -40 -57 -34 -55 15 6 288 265 754 718 l407 396 -32 8 c-18 5 -43 18 -56 30 -53 49 -51 -2 -51 1237 l0 1150 910 0 910 0 338 251 c185 138 344 258 352 265 12 12 -214 14 -1513 14 l-1527 0 0 -1438z"/>
  </g>
</svg>
